<?xml version="1.0" standalone="no"?>
<!DOCTYPE svg PUBLIC "-//W3C//DTD SVG 1.1//EN" "http://www.w3.org/Graphics/SVG/1.1/DTD/svg11.dtd" >
<svg xmlns="http://www.w3.org/2000/svg" xmlns:xlink="http://www.w3.org/1999/xlink" version="1.1">
<metadata>
Created by FontForge 20180930 at Mon Oct  8 19:17:49 2018
 By root
PCap Terminal (c) (Neale Davidson). 2014-2016. All Rights Reserved
</metadata>
<defs>
<font id="PCapTerminal-Bold" horiz-adv-x="1500" >
  <font-face 
    font-family="PCap Terminal"
    font-weight="700"
    font-variant="small-caps"
    font-stretch="normal"
    units-per-em="2048"
    panose-1="2 0 5 0 0 0 0 0 0 0"
    ascent="1638"
    descent="-410"
    x-height="1020"
    cap-height="1020"
    bbox="-66 -420 2326 1520"
    underline-thickness="150"
    underline-position="-292"
    unicode-range="U+0020-2122"
  />
    <missing-glyph />
    <glyph glyph-name="space" unicode=" " horiz-adv-x="800" 
 />
    <glyph glyph-name="space" unicode="&#xa0;" horiz-adv-x="800" 
 />
    <glyph glyph-name="exclam" unicode="!" horiz-adv-x="302" 
d="M226 151v-101q0 -70 -75 -70h-100q-75 0 -76 70v100q1 70 76 70h101q74 0 74 -69zM50 1020h100q75 0 76 -70l1 -620h-1q0 -50 -75 -50h-100q-75 0 -75 70l-1 600q0 70 75 70z" />
    <glyph glyph-name="quotedbl" unicode="&#x22;" horiz-adv-x="650" 
d="M-25 700q1 70 50 70v180q0 70 75 70h100q75 0 75 -70v-150q0 -270 -300 -270v170zM275 700q1 70 50 70v180q0 70 75 70h100q75 0 75 -70v-150q0 -270 -300 -270v170z" />
    <glyph glyph-name="numbersign" unicode="#" horiz-adv-x="1300" 
d="M674 180h-148v-150h-1q0 -50 -75 -50h-100q-75 0 -75 70v130h-225q-75 0 -75 70v100q0 70 75 70h225v160h-225q-75 0 -75 70v100q0 70 75 70h225v130q0 70 75 70h100q75 0 75 -70v-130h149v130q0 70 75 70h100q75 0 75 -70v-130h226q75 0 75 -70v-100q0 -70 -75 -70h-226
l1 -160h225q75 0 75 -70v-100q0 -70 -75 -70h-225v-150h-1q0 -50 -75 -50h-100q-75 0 -75 70v130zM526 420h148v160h-149z" />
    <glyph glyph-name="dollar" unicode="$" horiz-adv-x="1401" 
d="M775 381v-61h300l-1 61h-299zM525 680h-300l1 -61h299v61zM525 380h-274q-276 0 -276 270t276 270h274v30q0 70 75 70h100q75 0 75 -70v-30h478q73 0 73 -69l-1 -101q0 -70 -74 -70h-476v-60h274q276 0 276 -270t-275 -270h-275v-30q0 -70 -75 -70h-100q-75 0 -75 70v30
h-477q-73 0 -73 69l1 101q0 70 74 70h475v60z" />
    <glyph glyph-name="percent" unicode="%" horiz-adv-x="1300" 
d="M225 780l1 -160h249l1 160h-251zM726 380v-160h249v160h-249zM475 204l-213 -224h-312l380 400h-80q-275 0 -275 270v100q0 270 276 270h199q275 0 275 -270v46l213 224h312l-380 -400h80q275 0 275 -270v-100q0 -270 -275 -270h-200q-275 0 -275 270v-46z" />
    <glyph glyph-name="ampersand" unicode="&#x26;" 
d="M1325 250q0 -270 -275 -270h-799q-275 0 -275 270l-1 50q0 161 78 200q-78 39 -78 200v50q0 270 275 270h499q76 0 76 -70v-100q0 -70 -75 -70h-525l1 -160h849v30q0 70 75 70h100q75 0 75 -70v-30h25q75 0 75 -70v-100q0 -70 -75 -70h-25v-130zM1075 380h-850l1 -160
h849v160z" />
    <glyph glyph-name="quotesingle" unicode="'" horiz-adv-x="350" 
d="M-25 700q1 70 50 70v180q0 70 75 70h100q75 0 75 -70v-150q0 -270 -300 -270v170z" />
    <glyph glyph-name="parenleft" unicode="(" horiz-adv-x="603" 
d="M527 50l-1 -100q0 -70 -74 -70h-201q-276 0 -276 270l1 900q0 270 276 270h203q73 0 73 -69l-1 -101q0 -70 -74 -70h-227v-961l226 1q75 0 75 -70z" />
    <glyph glyph-name="parenright" unicode=")" horiz-adv-x="603" 
d="M-24 1150l1 100q0 70 74 70h201q276 0 276 -270l-1 -900q0 -270 -276 -270h-203q-73 0 -73 69l1 101q0 70 74 70h227v961l-226 -1q-75 0 -75 70z" />
    <glyph glyph-name="asterisk" unicode="*" horiz-adv-x="900" 
d="M275 868v182q0 70 75 70h100q75 0 75 -70v-182l168 54q16 5 31 5q50 0 65 -51l31 -95q5 -13 5 -26q0 -43 -52 -61l-175 -56l111 -152q15 -22 15 -42q0 -30 -31 -53l-82 -59q-24 -17 -48 -17q-35 0 -60 33l-103 142l-103 -142q-25 -33 -60 -33q-24 0 -48 17l-82 59
q-31 23 -31 53q0 20 15 42l111 152l-175 56q-52 18 -52 61q0 13 5 26l31 95q15 51 65 51q15 0 31 -5z" />
    <glyph glyph-name="plus" unicode="+" horiz-adv-x="1300" 
d="M475 380h-425q-75 0 -75 70v100q0 70 75 70h425v330q0 70 75 70h100q75 0 75 -70v-330h425q75 0 75 -70v-100q0 -70 -75 -70h-424v-350h-1q0 -50 -75 -50h-100q-75 0 -75 70v330z" />
    <glyph glyph-name="comma" unicode="," horiz-adv-x="351" 
d="M-25 -100q1 70 50 70v180q0 70 75 70h100q75 0 76 -70l-1 -150q0 -270 -300 -270v170z" />
    <glyph glyph-name="hyphen" unicode="-" horiz-adv-x="1300" 
d="M50 380q-75 0 -75 70v100q0 70 75 70h1100q75 0 75 -70v-100q0 -70 -75 -70h-1100z" />
    <glyph glyph-name="hyphen" unicode="&#xad;" horiz-adv-x="1300" 
d="M50 380q-75 0 -75 70v100q0 70 75 70h1100q75 0 75 -70v-100q0 -70 -75 -70h-1100z" />
    <glyph glyph-name="period" unicode="." horiz-adv-x="301" 
d="M-25 50v100q0 70 75 70h100q75 0 76 -70v-100q-1 -70 -76 -70h-101q-74 0 -74 70z" />
    <glyph glyph-name="slash" unicode="/" horiz-adv-x="1300" 
d="M262 -20h-312l988 1040h312z" />
    <glyph glyph-name="zero" unicode="0" 
d="M226 781v-561l949 -1l1 561zM1150 1020q275 0 275 -270v-500q0 -270 -275 -270h-900q-275 0 -275 270v500q0 270 276 270h899z" />
    <glyph glyph-name="one" unicode="1" horiz-adv-x="600" 
d="M-35 747l166 164q107 108 169 108q225 0 225 -221v-749q0 -69 -74 -69h-102q-75 0 -75 69v694l-120 -121z" />
    <glyph glyph-name="two" unicode="2" horiz-adv-x="1501" 
d="M226 381l-1 -161h1125q74 0 74 -70l1 -101q0 -69 -73 -69h-1301q-75 0 -75 70l-1 300q0 270 276 270h925v160h-1126q-74 0 -74 70l-1 101q0 69 73 69h1102q276 0 276 -270l-1 -100q0 -270 -276 -270z" />
    <glyph glyph-name="three" unicode="3" 
d="M250 380q-75 0 -75 70v100q0 70 75 70h924l1 160h-1125q-75 0 -75 70v100q0 70 76 70h1099q275 0 275 -270v-50q0 -161 -78 -200q78 -39 78 -200l-1 -50q0 -270 -275 -270h-1099q-75 1 -75 70v100q0 70 75 70h1124l1 160h-925z" />
    <glyph glyph-name="four" unicode="4" 
d="M975 280h-825q-175 0 -175 145q0 57 130 187l383 408h364l-500 -500h623v430q0 70 75 70h100q75 0 75 -70v-430h125q75 0 75 -70v-100q0 -70 -75 -70h-125v-230q0 -70 -75 -70h-100q-75 0 -75 70v230z" />
    <glyph glyph-name="five" unicode="5" 
d="M50 380q-75 0 -75 70v500q0 70 75 70h1302q73 0 73 -69l-1 -101q0 -70 -74 -70h-1126l1 -160h924q276 0 276 -270v-100q0 -270 -275 -270h-1102q-73 0 -73 69l1 101q0 70 74 70h1125v160h-1125z" />
    <glyph glyph-name="six" unicode="6" horiz-adv-x="1501" 
d="M226 380v-161l950 1v160h-950zM225 620h926q275 0 275 -270v-100q-1 -270 -275 -270h-900q-276 0 -276 270v500q0 270 276 270h1003q73 0 73 -69l-1 -101q0 -70 -74 -70h-1027v-160z" />
    <glyph glyph-name="seven" unicode="7" 
d="M1044 780h-994q-75 0 -75 70v100q0 70 75 70h1200q175 0 175 -145q0 -83 -132 -189l-782 -706h-367z" />
    <glyph glyph-name="eight" unicode="8" 
d="M1174 220l1 160h-949l-1 -160h949zM1174 620l1 160h-949l-1 -160h949zM1150 1020q275 0 275 -270v-50q0 -161 -78 -200q78 -39 78 -200l-1 -50q0 -270 -275 -270h-899q-275 0 -275 270v50q0 161 78 200q-78 39 -78 200l1 50q0 270 275 270h899z" />
    <glyph glyph-name="nine" unicode="9" horiz-adv-x="1501" 
d="M1175 620v161l-950 -1v-160h950zM1176 380h-926q-275 0 -275 270v100q1 270 275 270h900q276 0 276 -270v-500q0 -270 -276 -270h-1003q-73 0 -73 69l1 101q0 70 74 70h1027v160z" />
    <glyph glyph-name="colon" unicode=":" horiz-adv-x="301" 
d="M-25 250v100q0 70 75 70h100q75 0 76 -70v-100q-1 -70 -76 -70h-101q-74 0 -74 70zM-25 650v100q0 70 75 70h100q75 0 76 -70v-100q-1 -70 -76 -70h-101q-74 0 -74 70z" />
    <glyph glyph-name="semicolon" unicode=";" horiz-adv-x="351" 
d="M-25 -100q1 70 50 70v180q0 70 75 70h100q75 0 76 -70l-1 -150q0 -270 -300 -270v170zM25 650v100q0 70 75 70h100q75 0 76 -70v-100q-1 -70 -76 -70h-101q-74 0 -74 70z" />
    <glyph glyph-name="semicolon" unicode="&#x37e;" horiz-adv-x="351" 
d="M-25 -100q1 70 50 70v180q0 70 75 70h100q75 0 76 -70l-1 -150q0 -270 -300 -270v170zM25 650v100q0 70 75 70h100q75 0 76 -70v-100q-1 -70 -76 -70h-101q-74 0 -74 70z" />
    <glyph glyph-name="less" unicode="&#x3c;" horiz-adv-x="900" 
d="M234 500l624 -520h-369l-458 407q-56 56 -56 113t56 113l458 407h369z" />
    <glyph glyph-name="equal" unicode="=" horiz-adv-x="1300" 
d="M50 180q-75 0 -75 70v100q0 70 75 70h1100q75 0 75 -70v-100q0 -70 -75 -70h-1100zM50 580q-75 0 -75 70v100q0 70 75 70h1100q75 0 75 -70v-100q0 -70 -75 -70h-1100z" />
    <glyph glyph-name="greater" unicode="&#x3e;" horiz-adv-x="900" 
d="M-58 1020h369l458 -407q56 -56 56 -113t-56 -113l-458 -407h-369l624 520z" />
    <glyph glyph-name="question" unicode="?" horiz-adv-x="1501" 
d="M426 151v-101q0 -70 -75 -70h-100q-75 0 -76 70v100q1 70 76 70h101q74 0 74 -69zM450 620h725l1 160h-1126q-74 0 -74 70l-1 101q0 69 73 69h1102q275 0 275 -270l1 -100q0 -270 -276 -270h-725v-30q0 -70 -75 -70h-100q-75 0 -75 70q0 270 275 270z" />
    <glyph glyph-name="at" unicode="@" horiz-adv-x="1301" 
d="M526 530v-60h450v60h-450zM226 780v-560h826q75 0 75 -70l-1 -100q0 -70 -74 -70h-801q-276 0 -276 270v500q0 270 276 270h700q275 0 275 -271v-449q0 -70 -75 -70h-600q-275 0 -275 271q0 269 274 269h426v10h-750z" />
    <glyph glyph-name="A" unicode="A" horiz-adv-x="1700" 
d="M375 180l-135 -200h-282l596 879q106 161 246 161t248 -161l594 -879h-282l-135 200h-850zM1062 420l-262 388l-262 -388h524z" />
    <glyph glyph-name="B" unicode="B" 
d="M226 781l-1 -161h949l1 160zM226 380l-1 -160h949l1 160h-949zM51 1020h1099q275 0 275 -270v-50q0 -161 -78 -200q78 -39 78 -200l-1 -50q0 -270 -275 -270h-1099q-75 1 -75 70v900q0 70 76 70z" />
    <glyph glyph-name="C" unicode="C" horiz-adv-x="1501" 
d="M1426 150l-1 -100q0 -70 -74 -70h-1100q-276 0 -276 270v500q0 270 276 270h1102q73 0 73 -69l-1 -101q0 -70 -74 -70h-1126l1 -561l1125 1q75 0 75 -70z" />
    <glyph glyph-name="D" unicode="D" 
d="M226 781v-561l949 -1l1 561zM1150 1020q275 0 275 -270v-500q0 -270 -275 -270h-1100q-75 0 -75 70v900q0 70 75 70h1100z" />
    <glyph glyph-name="E" unicode="E" horiz-adv-x="1501" 
d="M226 380v-161l1125 1q75 0 75 -70l-1 -100q0 -70 -74 -70h-1100q-276 0 -276 270v500q0 270 276 270h1102q73 0 73 -69l-1 -101q0 -70 -74 -70h-1126v-160h1126q75 0 75 -70v-100q0 -70 -75 -70h-1125z" />
    <glyph glyph-name="F" unicode="F" horiz-adv-x="1501" 
d="M226 380v-330q0 -70 -74 -70h-101q-75 0 -75 70l-1 700q0 270 276 270h1102q73 0 73 -69l-1 -101q0 -70 -74 -70h-1126v-160h1126q75 0 75 -70v-100q0 -70 -75 -70h-1125z" />
    <glyph glyph-name="G" unicode="G" horiz-adv-x="1501" 
d="M1426 250q-1 -270 -275 -270h-900q-276 0 -276 270v500q0 270 276 270h1102q73 0 73 -69l-1 -101q0 -70 -74 -70h-1126l1 -561l950 1v160h-425q-75 0 -75 70v100q0 70 75 70h600q75 0 75 -70v-300z" />
    <glyph glyph-name="H" unicode="H" horiz-adv-x="1502" 
d="M226 380v-330q0 -70 -75 -70h-100q-75 0 -75 70l-1 920h1q0 50 75 50h100q75 0 75 -70v-330h950v350h1q0 50 75 50h100q75 0 75 -70v-900q0 -70 -75 -70h-100q-75 0 -75 70v330h-951z" />
    <glyph glyph-name="I" unicode="I" horiz-adv-x="301" 
d="M151 -20h-100q-75 0 -75 70l-1 920h1q0 50 75 50h100q75 0 75 -70v-900q0 -70 -75 -70z" />
    <glyph glyph-name="J" unicode="J" horiz-adv-x="1302" 
d="M976 951q0 69 73 69h102q75 0 75 -70l1 -700q0 -270 -276 -270h-901q-74 0 -74 70l-1 100q0 70 75 70l926 -1v732z" />
    <glyph glyph-name="K" unicode="K" 
d="M225 363v-313q0 -70 -75 -70h-100q-75 0 -75 70v899q1 70 75 70h100q75 0 75 -70v-312q-4 -5 -4 -8q0 -2 2 -2q9 0 39 15l731 378h490l-988 -520l988 -520h-490l-731 378q-30 15 -39 15q-2 0 -2 -2q0 -3 4 -8z" />
    <glyph glyph-name="L" unicode="L" horiz-adv-x="1302" 
d="M226 219l926 1q75 0 75 -70l-1 -100q0 -70 -74 -70h-901q-276 0 -276 270l1 700q0 70 75 70h102q73 0 73 -69v-732z" />
    <glyph glyph-name="M" unicode="M" horiz-adv-x="1700" 
d="M200 1021q115 0 222 -162l379 -614l377 615q108 160 222 160q225 0 225 -221v-749q0 -69 -74 -69h-102q-75 0 -75 69v668l-401 -626q-56 -112 -172 -112q-117 0 -174 111l-402 626l1 -667q-1 -69 -77 -69h-99q-75 0 -75 69v750q0 220 225 221z" />
    <glyph glyph-name="N" unicode="N" horiz-adv-x="1501" 
d="M200 1021q112 0 269 -158l706 -660v748q0 69 75 69h100q76 0 76 -70v-750q-1 -220 -226 -220q-112 0 -269 157l-707 659v-745q0 -71 -74 -71h-101q-74 0 -74 70v750q0 220 225 221z" />
    <glyph glyph-name="O" unicode="O" 
d="M226 781v-561l949 -1l1 561zM1150 1020q275 0 275 -270v-500q0 -270 -275 -270h-900q-275 0 -275 270v500q0 270 276 270h899z" />
    <glyph glyph-name="P" unicode="P" 
d="M226 781l-1 -261h949l1 260zM-25 950q1 70 75 70h1100q275 0 275 -270l-1 -200q0 -270 -275 -270h-924v-230q0 -70 -75 -70h-100q-75 0 -75 70v900z" />
    <glyph glyph-name="Q" unicode="Q" 
d="M875 -20h-625q-275 0 -275 270v500q0 270 276 270h899q275 0 275 -270v-500q0 -270 -275 -270h-25v-130q0 -70 -75 -70h-100q-75 0 -75 70v130zM875 219v131q0 70 75 70h100q75 0 75 -70v-131h50v561l-949 1v-561z" />
    <glyph glyph-name="R" unicode="R" 
d="M226 781l-1 -262h950v261zM1175 50v230h-950v-230q0 -70 -75 -70h-100q-74 0 -75 70v900q1 70 75 70h1100q275 0 275 -270l-1 -150q0 -161 -78 -200q78 -39 78 -200l1 -150q0 -70 -75 -70h-100q-75 0 -75 70z" />
    <glyph glyph-name="S" unicode="S" horiz-adv-x="1501" 
d="M252 380q-276 0 -276 270l-1 100q0 270 276 270h1102q73 0 73 -69l-1 -101q0 -70 -74 -70h-1126l2 -161l923 1q276 0 276 -270v-100q0 -270 -275 -270h-1102q-73 0 -73 69l1 101q0 70 74 70h1125l-1 161z" />
    <glyph glyph-name="T" unicode="T" 
d="M1425 950v-100q0 -70 -75 -70h-525v-730q0 -70 -75 -70h-100q-75 0 -75 70v730h-525q-75 0 -75 70v100q0 70 75 70h1300q75 0 75 -70z" />
    <glyph glyph-name="U" unicode="U" 
d="M1250 1020h100q75 0 75 -70v-700q0 -270 -275 -270h-900q-275 0 -275 270v700q0 70 75 70h99q76 0 76 -70v-730l949 -1l1 731q0 69 75 70z" />
    <glyph glyph-name="V" unicode="V" horiz-adv-x="1700" 
d="M554 141l-596 879h282l560 -828l560 828h282l-594 -879q-108 -161 -248 -161t-246 161z" />
    <glyph glyph-name="W" unicode="W" horiz-adv-x="2000" 
d="M950 685l-227 -567q-55 -138 -198 -138t-198 138l-361 902h277l282 -705l227 567q55 138 198 138t198 -138l227 -567l282 705h277l-361 -902q-55 -138 -198 -138t-198 138z" />
    <glyph glyph-name="X" unicode="X" horiz-adv-x="1650" 
d="M777 609l4 4l458 407h369l-624 -520l624 -520h-369l-458 407l-4 4q2 4 2 5q-1 0 -4 -3q-3 3 -4 3q0 -1 2 -5l-4 -4l-458 -407h-369l624 520l-624 520h369l458 -407l4 -4q-2 -4 -2 -5q1 0 4 3q3 -3 4 -3q0 1 -2 5z" />
    <glyph glyph-name="Y" unicode="Y" horiz-adv-x="1600" 
d="M750 532l488 488h314l-677 -677v-293q0 -70 -75 -70h-100q-75 0 -75 70v293l-677 677h314z" />
    <glyph glyph-name="Z" unicode="Z" horiz-adv-x="1501" 
d="M51 1020l1100 -1q275 -3 275 -219q0 -111 -114 -167l-961 -412l1001 -1q74 0 74 -70v-100q0 -70 -75 -70h-1099q-276 1 -277 221q0 111 113 166l963 413h-1001q-74 2 -74 70l1 100q0 70 74 70z" />
    <glyph glyph-name="bracketleft" unicode="[" horiz-adv-x="602" 
d="M526 50l-1 -100q0 -70 -74 -70h-401q-75 0 -75 70v1300q0 70 76 70h403q73 0 73 -69l-1 -101q0 -70 -74 -70h-227v-961l226 1q75 0 75 -70z" />
    <glyph glyph-name="backslash" unicode="\" horiz-adv-x="1300" 
d="M-50 1020h312l988 -1040h-312z" />
    <glyph glyph-name="bracketright" unicode="]" horiz-adv-x="602" 
d="M-24 1150l1 100q0 70 74 70h401q75 0 75 -70v-1300q0 -70 -76 -70h-403q-73 0 -73 69l1 101q0 70 74 70h227v961l-226 -1q-75 0 -75 70z" />
    <glyph glyph-name="asciicircum" unicode="^" horiz-adv-x="800" 
d="M462 1080l-112 134l-112 -134h-286l202 231q82 109 196 109t196 -109l202 -231h-286z" />
    <glyph glyph-name="underscore" unicode="_" horiz-adv-x="1300" 
d="M50 -320q-75 0 -75 70v100q0 70 75 70h1100q75 0 75 -70v-100q0 -70 -75 -70h-1100z" />
    <glyph glyph-name="grave" unicode="`" horiz-adv-x="800" 
d="M416 1080l-482 340h350l482 -340h-350z" />
    <glyph glyph-name="a" unicode="a" 
d="M100 1020h1050q275 0 275 -271v-699q0 -70 -75 -70h-1100q-275 0 -275 269v102q0 269 274 269h926v160h-1075q-75 0 -75 70v100q0 70 75 70zM225 380v-160h950v160h-950z" />
    <glyph glyph-name="b" unicode="b" horiz-adv-x="1501" 
d="M49 1420h100q77 0 77 -69v-331h925q275 0 275 -270v-500q0 -270 -275 -270h-1100q-75 0 -75 70l-1 1302q8 68 74 68zM227 781v-561l949 -1l1 561z" />
    <glyph glyph-name="c" unicode="c" horiz-adv-x="1501" 
d="M1426 150l-1 -100q0 -70 -74 -70h-1100q-276 0 -276 270v500q0 270 276 270h1102q73 0 73 -69l-1 -101q0 -70 -74 -70h-1126l1 -561l1125 1q75 0 75 -70z" />
    <glyph glyph-name="d" unicode="d" horiz-adv-x="1501" 
d="M1426 1351l-1 -1301q0 -70 -74 -70h-1100q-276 0 -276 270v500q0 270 276 270h925v331q0 69 77 69h100q73 0 73 -69zM225 780l1 -561l949 1v561z" />
    <glyph glyph-name="e" unicode="e" 
d="M1299 -20h-1050q-274 0 -274 271v499q0 270 275 270h899q276 0 276 -270v-300q0 -70 -75 -70h-1126v-160h1075q76 0 76 -70v-100q0 -70 -76 -70zM1174 620v160h-950v-160h950z" />
    <glyph glyph-name="f" unicode="f" horiz-adv-x="1501" 
d="M226 330v-680q0 -70 -74 -70h-101q-75 0 -75 70l-1 1100q0 270 276 270h1102q73 0 73 -69l-1 -101q0 -70 -74 -70h-1126v-210h1126q75 0 75 -70v-100q0 -70 -75 -70h-1125z" />
    <glyph glyph-name="g" unicode="g" 
d="M1175 219v560h-949l-1 -560h950zM1176 -180v160h-925q-276 0 -276 269v500q0 271 276 271h1100q74 0 74 -70v-1100q0 -270 -275 -270h-1000q-75 0 -75 70v100q0 70 75 70h1026z" />
    <glyph glyph-name="h" unicode="h" 
d="M225 1020h925q275 0 275 -270v-700q0 -70 -75 -70h-99q-76 0 -76 70v730l-949 1l-1 -731q0 -69 -75 -70h-100q-75 0 -75 70v1300q0 70 75 70h100q75 0 75 -70v-330z" />
    <glyph glyph-name="i" unicode="i" horiz-adv-x="302" 
d="M-24 1150v100q0 70 75 70h100q75 0 76 -70v-100q-1 -70 -76 -70h-101q-74 0 -74 70zM151 -20h-100q-75 0 -75 70l-1 920h1q0 50 75 50h100q75 0 75 -70v-900q0 -70 -75 -70z" />
    <glyph glyph-name="j" unicode="j" horiz-adv-x="603" 
d="M277 1150v100q0 70 75 70h100q75 0 76 -70v-100q-1 -70 -76 -70h-101q-74 0 -74 70zM276 970h1q0 50 75 50h100q75 0 75 -70v-1100q0 -270 -276 -270h-202q-74 0 -74 70l2 100q0 70 75 70l224 -1v1151z" />
    <glyph glyph-name="k" unicode="k" 
d="M225 363v-313q0 -70 -75 -70h-100q-75 0 -75 70v1300q1 70 75 70h100q75 0 75 -70v-713q-4 -5 -4 -8q0 -2 2 -2q9 0 39 15l731 378h490l-988 -520l988 -520h-490l-731 378q-30 15 -39 15q-2 0 -2 -2q0 -3 4 -8z" />
    <glyph glyph-name="l" unicode="l" horiz-adv-x="301" 
d="M151 -20h-100q-75 0 -75 70l-1 1320h1q0 50 75 50h100q75 0 75 -70v-1300q0 -70 -75 -70z" />
    <glyph glyph-name="m" unicode="m" horiz-adv-x="1800" 
d="M725 781h-499l-1 -731q0 -69 -75 -70h-100q-75 0 -75 70v900q0 70 75 70h1400q275 0 275 -270v-700q0 -70 -75 -70h-99q-76 0 -76 70v730h-500v-730q0 -70 -75 -70h-100q-75 0 -75 70v731z" />
    <glyph glyph-name="n" unicode="n" 
d="M150 -20h-100q-75 0 -75 70v900q0 70 75 70h1100q275 0 275 -270v-700q0 -70 -75 -70h-99q-76 0 -76 70v730l-949 1l-1 -731q0 -69 -75 -70z" />
    <glyph glyph-name="o" unicode="o" 
d="M226 781v-561l949 -1l1 561zM1150 1020q275 0 275 -270v-500q0 -270 -275 -270h-900q-275 0 -275 270v500q0 270 276 270h899z" />
    <glyph glyph-name="p" unicode="p" horiz-adv-x="1501" 
d="M-25 -352l1 1302q0 70 75 70h1100q275 0 275 -271v-500q-1 -269 -275 -269h-925v-331q0 -69 -77 -69h-100q-66 0 -74 68zM1177 220l-1 560l-949 -1v-560z" />
    <glyph glyph-name="q" unicode="q" horiz-adv-x="1501" 
d="M1353 -420h-100q-77 0 -77 69v331h-925q-275 0 -276 269v500q0 271 276 271h1100q74 0 74 -70l1 -1302q-8 -68 -73 -68zM1175 219v560l-949 1l-1 -560z" />
    <glyph glyph-name="r" unicode="r" horiz-adv-x="1400" 
d="M150 -20h-100q-75 0 -75 70v900q0 70 75 70h1000q275 0 275 -270v-100q0 -70 -75 -70h-99q-76 0 -76 70v130l-849 1l-1 -731q0 -69 -75 -70z" />
    <glyph glyph-name="s" unicode="s" horiz-adv-x="1501" 
d="M252 380q-276 0 -276 270l-1 100q0 270 276 270h1102q73 0 73 -69l-1 -101q0 -70 -74 -70h-1126l2 -161l923 1q276 0 276 -270v-100q0 -270 -275 -270h-1102q-73 0 -73 69l1 101q0 70 74 70h1125l-1 161z" />
    <glyph glyph-name="t" unicode="t" 
d="M425 1020h927q73 0 73 -69l-1 -101q0 -70 -74 -70h-925l1 -561l924 1q75 0 75 -70l-1 -100q0 -70 -74 -70h-899q-276 0 -276 270v530h-125q-75 0 -75 70v100q0 70 75 70h125v330q0 70 75 70h100q75 0 75 -70v-330z" />
    <glyph glyph-name="u" unicode="u" 
d="M1250 1020h100q75 0 75 -70v-900q0 -70 -75 -70h-1100q-275 0 -275 270v700q0 70 75 70h99q76 0 76 -70v-730l949 -1l1 731q0 69 75 70z" />
    <glyph glyph-name="v" unicode="v" horiz-adv-x="1700" 
d="M554 141l-596 879h282l560 -828l560 828h282l-594 -879q-108 -161 -248 -161t-246 161z" />
    <glyph glyph-name="w" unicode="w" horiz-adv-x="2000" 
d="M950 685l-227 -567q-55 -138 -198 -138t-198 138l-361 902h277l282 -705l227 567q55 138 198 138t198 -138l227 -567l282 705h277l-361 -902q-55 -138 -198 -138t-198 138z" />
    <glyph glyph-name="x" unicode="x" horiz-adv-x="1650" 
d="M769 387l-458 -407h-366l572 520l-572 520h366l458 -407l29 -33l34 34l406 406h364l-520 -520l520 -520h-364l-406 406l-34 34z" />
    <glyph glyph-name="y" unicode="y" 
d="M1175 950q0 70 75 70h101q74 0 74 -70v-1100q0 -270 -275 -270h-1000q-75 0 -75 70v100q0 70 75 70h1026v160h-925q-276 0 -276 269v701q0 70 75 70h100q75 0 76 -70l-1 -731h950v731z" />
    <glyph glyph-name="z" unicode="z" horiz-adv-x="1501" 
d="M51 1020l1100 -1q275 -3 275 -219q0 -111 -114 -167l-961 -412l1001 -1q74 0 74 -70v-100q0 -70 -75 -70h-1099q-276 1 -277 221q0 111 113 166l963 413h-1001q-74 2 -74 70l1 100q0 70 74 70z" />
    <glyph glyph-name="braceleft" unicode="{" horiz-adv-x="602" 
d="M74 420h1v60h-25q-75 0 -75 70v100q0 70 75 70h24l1 180v150q0 270 276 270h103q73 0 73 -69l-1 -101q0 -70 -74 -70h-127v-280q0 -161 -78 -200q78 -39 78 -200v-281l126 1q74 0 74 -70v-100q0 -70 -74 -70h-101q-276 0 -276 270v270z" />
    <glyph glyph-name="bar" unicode="|" horiz-adv-x="301" 
d="M151 -120h-100q-75 0 -75 70l-1 1520h1q0 50 75 50h100q75 0 75 -70v-1500q0 -70 -75 -70z" />
    <glyph glyph-name="braceright" unicode="}" horiz-adv-x="602" 
d="M428 800l-1 -80h25q75 0 75 -70v-100q0 -70 -75 -70h-24l-1 -180v-150q0 -270 -276 -270h-103q-73 0 -73 69l1 101q0 70 74 70h127v280q0 161 78 200q-78 39 -78 200v281l-126 -1q-74 0 -74 70v100q0 70 74 70h101q276 0 276 -270v-250z" />
    <glyph glyph-name="asciitilde" unicode="~" horiz-adv-x="1000" 
d="M331 1217l-91 -137h-284l174 232q81 108 195 108q87 0 144 -57l100 -80l91 137h284l-174 -232q-81 -108 -195 -108q-87 0 -144 57z" />
    <glyph glyph-name="exclamdown" unicode="&#xa1;" horiz-adv-x="302" 
d="M-24 850v100q0 70 75 70h100q75 0 76 -70v-100q-1 -70 -76 -70h-101q-74 0 -74 70zM152 -20h-100q-75 0 -76 70l-1 620h1q0 50 75 50h100q75 0 75 -70l1 -600q0 -70 -75 -70z" />
    <glyph glyph-name="cent" unicode="&#xa2;" horiz-adv-x="1402" 
d="M776 320h475q75 0 75 -70l-1 -100q0 -70 -74 -70h-475v-30q0 -70 -75 -70h-100q-75 0 -75 70v30h-276q-274 0 -274 270l-1 300q0 270 276 270h275v30q0 70 75 70h100q75 0 75 -70v-30h478q73 0 73 -69l-1 -101q0 -70 -74 -70h-476v-360zM526 680h-300v-360h300v360z" />
    <glyph glyph-name="sterling" unicode="&#xa3;" 
d="M425 380v-160h925q75 0 75 -70l-1 -100q0 -70 -74 -70h-1300q-75 0 -75 70v100q0 70 75 70h125v160h-125q-75 0 -75 70v100q0 70 75 70h125v130q0 270 276 270h802q72 0 72 -70v-100q0 -70 -74 -70h-826v-160h525q75 0 75 -70v-100q0 -70 -75 -70h-525z" />
    <glyph glyph-name="currency" unicode="&#xa4;" horiz-adv-x="1700" 
d="M675 580l1 -160h249l1 160h-251zM541 786q50 34 160 34h199q110 0 159 -34l281 234h318l-487 -407q4 -24 4 -63v-100q0 -39 -4 -63l487 -407h-318l-281 234q-49 -34 -159 -34h-200q-110 0 -159 34l-281 -234h-318l487 407q-4 24 -4 63v100q0 39 4 63l-487 407h318z" />
    <glyph glyph-name="yen" unicode="&#xa5;" horiz-adv-x="1600" 
d="M838 620l400 400h314l-400 -400h148q75 0 75 -70v-100q0 -70 -75 -70h-388l-37 -37v-23h425q75 0 75 -70v-100q0 -70 -75 -70h-425v-30q0 -70 -75 -70h-100q-75 0 -75 70v30h-425q-75 0 -75 70v100q0 70 75 70h425v23l-37 37h-388q-75 0 -75 70v100q0 70 75 70h148
l-400 400h314l400 -400h176z" />
    <glyph glyph-name="brokenbar" unicode="&#xa6;" horiz-adv-x="302" 
d="M226 600v-650q0 -70 -75 -70h-100q-75 0 -76 70v649q1 70 76 70h101q74 0 74 -69zM51 1520h100q75 0 76 -70v-671h-1q0 -50 -75 -50h-100q-75 0 -75 70v651q0 70 75 70z" />
    <glyph glyph-name="section" unicode="&#xa7;" horiz-adv-x="1401" 
d="M525 580l1 -160h249l1 160h-251zM280 380h-29q-276 0 -276 270v200q0 270 276 270h1002q73 0 73 -69l-1 -101q0 -70 -74 -70h-1026l1 -261h54q23 201 271 201h199q247 0 270 -200h29q276 0 276 -270v-200q0 -270 -275 -270h-1002q-73 0 -73 69l1 101q0 70 74 70h1025v260
h-55q-23 -200 -270 -200h-200q-247 0 -270 200z" />
    <glyph glyph-name="dieresis" unicode="&#xa8;" horiz-adv-x="901" 
d="M575 1150v100q0 70 75 70h100q75 0 76 -70v-100q-1 -70 -76 -70h-101q-74 0 -74 70zM-25 1150v100q0 70 75 70h100q75 0 76 -70v-100q-1 -70 -76 -70h-101q-74 0 -74 70z" />
    <glyph glyph-name="copyright" unicode="&#xa9;" horiz-adv-x="1000" 
d="M731 675l-1 -50q0 -25 -24 -25h-451q-126 0 -126 125v250q0 125 126 125h452q24 0 24 -24l-1 -51q0 -25 -24 -25h-477l1 -300h476q25 0 25 -25zM450 1200q-166 0 -283 -102.5t-117 -247.5t117 -247.5t283 -102.5t283 102.5t117 247.5t-117 247.5t-283 102.5zM768 1133
q132 -117 132 -283t-132 -283t-318 -117t-318 117t-132 283t132 283t318 117t318 -117z" />
    <glyph glyph-name="ordfeminine" unicode="&#xaa;" horiz-adv-x="1600" 
d="M0 200v1100q0 200 200 200h1100q200 0 200 -200v-1100q0 -200 -200 -200h-1100q-200 0 -200 200zM1475 201v1099q0 175 -175 175h-1100q-174 0 -175 -175v-1100q1 -175 175 -175h1101q174 0 174 176z" />
    <glyph glyph-name="guillemotleft" unicode="&#xab;" horiz-adv-x="1400" 
d="M234 500l624 -520h-369l-458 407q-56 56 -56 113t56 113l458 407h369zM734 500l624 -520h-369l-458 407q-56 56 -56 113t56 113l458 407h369z" />
    <glyph glyph-name="logicalnot" unicode="&#xac;" horiz-adv-x="1600" 
d="M0 200v1100q0 200 200 200h1100q200 0 200 -200v-1100q0 -200 -200 -200h-1100q-200 0 -200 200zM1475 201v1099q0 175 -175 175h-1100q-174 0 -175 -175v-1100q1 -175 175 -175h1101q174 0 174 176z" />
    <glyph glyph-name="registered" unicode="&#xae;" horiz-adv-x="1000" 
d="M250 1000v-150h400v150h-400zM749 618q101 98 101 232q0 145 -117 247.5t-283 102.5q-164 0 -281 -100h456q125 0 125 -125v-75q0 -75 -50 -100q50 -25 50 -100v-75q0 -4 -1 -7zM151 1082q-101 -98 -101 -232q0 -135 101 -233q-1 4 -1 8v450q0 4 1 7zM169 600
q117 -100 281 -100t281 100h-56q-25 0 -25 25v125h-400v-125q0 -25 -25 -25h-56zM900 850q0 -166 -132 -283t-318 -117t-318 117t-132 283t132 283t318 117t318 -117t132 -283z" />
    <glyph glyph-name="macron" unicode="&#xaf;" horiz-adv-x="1600" 
d="M0 200v1100q0 200 200 200h1100q200 0 200 -200v-1100q0 -200 -200 -200h-1100q-200 0 -200 200zM1475 201v1099q0 175 -175 175h-1100q-174 0 -175 -175v-1100q1 -175 175 -175h1101q174 0 174 176z" />
    <glyph glyph-name="degree" unicode="&#xb0;" horiz-adv-x="1600" 
d="M0 200v1100q0 200 200 200h1100q200 0 200 -200v-1100q0 -200 -200 -200h-1100q-200 0 -200 200zM1475 201v1099q0 175 -175 175h-1100q-174 0 -175 -175v-1100q1 -175 175 -175h1101q174 0 174 176z" />
    <glyph glyph-name="plusminus" unicode="&#xb1;" horiz-adv-x="1600" 
d="M0 200v1100q0 200 200 200h1100q200 0 200 -200v-1100q0 -200 -200 -200h-1100q-200 0 -200 200zM1475 201v1099q0 175 -175 175h-1100q-174 0 -175 -175v-1100q1 -175 175 -175h1101q174 0 174 176z" />
    <glyph glyph-name="uni00B2" unicode="&#xb2;" horiz-adv-x="1600" 
d="M0 200v1100q0 200 200 200h1100q200 0 200 -200v-1100q0 -200 -200 -200h-1100q-200 0 -200 200zM1475 201v1099q0 175 -175 175h-1100q-174 0 -175 -175v-1100q1 -175 175 -175h1101q174 0 174 176z" />
    <glyph glyph-name="uni00B3" unicode="&#xb3;" horiz-adv-x="1600" 
d="M0 200v1100q0 200 200 200h1100q200 0 200 -200v-1100q0 -200 -200 -200h-1100q-200 0 -200 200zM1475 201v1099q0 175 -175 175h-1100q-174 0 -175 -175v-1100q1 -175 175 -175h1101q174 0 174 176z" />
    <glyph glyph-name="acute" unicode="&#xb4;" horiz-adv-x="800" 
d="M-66 1080l482 340h350l-482 -340h-350z" />
    <glyph glyph-name="mu" unicode="&#xb5;" horiz-adv-x="1501" 
d="M1175 950q0 70 75 70h100q75 0 75 -70l1 -701q-1 -269 -275 -269h-925v-331q0 -69 -77 -69h-100q-66 0 -74 68l1 1302q0 70 75 70h99q75 0 75 -70v-730h950v730z" />
    <glyph glyph-name="paragraph" unicode="&#xb6;" horiz-adv-x="1600" 
d="M0 200v1100q0 200 200 200h1100q200 0 200 -200v-1100q0 -200 -200 -200h-1100q-200 0 -200 200zM1475 201v1099q0 175 -175 175h-1100q-174 0 -175 -175v-1100q1 -175 175 -175h1101q174 0 174 176z" />
    <glyph glyph-name="periodcentered" unicode="&#xb7;" horiz-adv-x="301" 
d="M-25 450v100q0 70 75 70h100q75 0 76 -70v-100q-1 -70 -76 -70h-101q-74 0 -74 70z" />
    <glyph glyph-name="periodcentered" unicode="&#x2219;" horiz-adv-x="301" 
d="M-25 450v100q0 70 75 70h100q75 0 76 -70v-100q-1 -70 -76 -70h-101q-74 0 -74 70z" />
    <glyph glyph-name="cedilla" unicode="&#xb8;" horiz-adv-x="602" 
d="M275 150q0 70 75 70h100q74 0 77 -70v-300q0 -270 -276 -270h-202q-74 0 -74 70v100q3 70 77 70h223v330z" />
    <glyph glyph-name="uni00B9" unicode="&#xb9;" horiz-adv-x="1600" 
d="M0 200v1100q0 200 200 200h1100q200 0 200 -200v-1100q0 -200 -200 -200h-1100q-200 0 -200 200zM1475 201v1099q0 175 -175 175h-1100q-174 0 -175 -175v-1100q1 -175 175 -175h1101q174 0 174 176z" />
    <glyph glyph-name="ordmasculine" unicode="&#xba;" horiz-adv-x="1600" 
d="M0 200v1100q0 200 200 200h1100q200 0 200 -200v-1100q0 -200 -200 -200h-1100q-200 0 -200 200zM1475 201v1099q0 175 -175 175h-1100q-174 0 -175 -175v-1100q1 -175 175 -175h1101q174 0 174 176z" />
    <glyph glyph-name="guillemotright" unicode="&#xbb;" horiz-adv-x="1400" 
d="M442 1020h369l458 -407q56 -56 56 -113t-56 -113l-458 -407h-369l624 520zM-58 1020h369l458 -407q56 -56 56 -113t-56 -113l-458 -407h-369l624 520z" />
    <glyph glyph-name="onequarter" unicode="&#xbc;" horiz-adv-x="1600" 
d="M0 200v1100q0 200 200 200h1100q200 0 200 -200v-1100q0 -200 -200 -200h-1100q-200 0 -200 200zM1475 201v1099q0 175 -175 175h-1100q-174 0 -175 -175v-1100q1 -175 175 -175h1101q174 0 174 176z" />
    <glyph glyph-name="onehalf" unicode="&#xbd;" horiz-adv-x="1600" 
d="M0 200v1100q0 200 200 200h1100q200 0 200 -200v-1100q0 -200 -200 -200h-1100q-200 0 -200 200zM1475 201v1099q0 175 -175 175h-1100q-174 0 -175 -175v-1100q1 -175 175 -175h1101q174 0 174 176z" />
    <glyph glyph-name="threequarters" unicode="&#xbe;" horiz-adv-x="1600" 
d="M0 200v1100q0 200 200 200h1100q200 0 200 -200v-1100q0 -200 -200 -200h-1100q-200 0 -200 200zM1475 201v1099q0 175 -175 175h-1100q-174 0 -175 -175v-1100q1 -175 175 -175h1101q174 0 174 176z" />
    <glyph glyph-name="questiondown" unicode="&#xbf;" horiz-adv-x="1501" 
d="M975 850v100q0 70 75 70h100q75 0 76 -70v-100q-1 -70 -76 -70h-101q-74 0 -74 70zM951 380h-725l-1 -160h1126q74 0 74 -70l1 -101q0 -69 -73 -69h-1102q-275 0 -275 270l-1 100q0 270 276 270h725v30q0 70 75 70h100q75 0 75 -70q0 -270 -275 -270z" />
    <glyph glyph-name="Agrave" unicode="&#xc0;" horiz-adv-x="1700" 
d="M375 180l-135 -200h-282l596 879q106 161 246 161t248 -161l594 -879h-282l-135 200h-850zM1062 420l-262 388l-262 -388h524zM866 1080l-482 340h350l482 -340h-350z" />
    <glyph glyph-name="Aacute" unicode="&#xc1;" horiz-adv-x="1700" 
d="M375 180l-135 -200h-282l596 879q106 161 246 161t248 -161l594 -879h-282l-135 200h-850zM1062 420l-262 388l-262 -388h524zM384 1080l482 340h350l-482 -340h-350z" />
    <glyph glyph-name="Acircumflex" unicode="&#xc2;" horiz-adv-x="1700" 
d="M375 180l-135 -200h-282l596 879q106 161 246 161t248 -161l594 -879h-282l-135 200h-850zM1062 420l-262 388l-262 -388h524zM912 1080l-112 134l-112 -134h-286l202 231q82 109 196 109t196 -109l202 -231h-286z" />
    <glyph glyph-name="Atilde" unicode="&#xc3;" horiz-adv-x="1700" 
d="M375 180l-135 -200h-282l596 879q106 161 246 161t248 -161l594 -879h-282l-135 200h-850zM1062 420l-262 388l-262 -388h524zM681 1217l-91 -137h-284l174 232q81 108 195 108q87 0 144 -57l100 -80l91 137h284l-174 -232q-81 -108 -195 -108q-87 0 -144 57z" />
    <glyph glyph-name="Adieresis" unicode="&#xc4;" horiz-adv-x="1700" 
d="M375 180l-135 -200h-282l596 879q106 161 246 161t248 -161l594 -879h-282l-135 200h-850zM1062 420l-262 388l-262 -388h524zM975 1150v100q0 70 75 70h100q75 0 76 -70v-100q-1 -70 -76 -70h-101q-74 0 -74 70zM375 1150v100q0 70 75 70h100q75 0 76 -70v-100
q-1 -70 -76 -70h-101q-74 0 -74 70z" />
    <glyph glyph-name="Aring" unicode="&#xc5;" horiz-adv-x="1700" 
d="M375 180l-135 -200h-282l596 879q106 161 246 161t248 -161l594 -879h-282l-135 200h-850zM1062 420l-262 388l-262 -388h524zM800 1080q-74 0 -124.5 50.5t-50.5 119.5t50.5 119.5t124.5 50.5t124.5 -50.5t50.5 -119.5t-50.5 -119.5t-124.5 -50.5z" />
    <glyph glyph-name="AE" unicode="&#xc6;" horiz-adv-x="2401" 
d="M1062 420l-262 388l-262 -388h524zM1080 180h-705l-135 -200h-282l596 879q106 161 246 161t248 -161l27 -40v-69q0 270 276 270h902q73 0 73 -69l-1 -101q0 -70 -74 -70h-926v-160h926q75 0 75 -70v-100q0 -70 -75 -70h-926l-1 -160h927q75 0 75 -70l-1 -100
q0 -70 -74 -70h-900q-248 0 -271 200z" />
    <glyph glyph-name="Ccedilla" unicode="&#xc7;" horiz-adv-x="1501" 
d="M1351 220q75 0 75 -70l-1 -100q0 -70 -74 -70h-425v-130q0 -270 -276 -270h-202q-74 0 -74 70v100q3 70 77 70h223v160h-423q-276 0 -276 270v500q0 270 276 270h1102q73 0 73 -69l-1 -101q0 -70 -74 -70h-1126l1 -561z" />
    <glyph glyph-name="Egrave" unicode="&#xc8;" horiz-adv-x="1501" 
d="M226 380v-161l1125 1q75 0 75 -70l-1 -100q0 -70 -74 -70h-1100q-276 0 -276 270v500q0 270 276 270h1102q73 0 73 -69l-1 -101q0 -70 -74 -70h-1126v-160h1126q75 0 75 -70v-100q0 -70 -75 -70h-1125zM767 1080l-482 340h350l482 -340h-350z" />
    <glyph glyph-name="Eacute" unicode="&#xc9;" horiz-adv-x="1501" 
d="M226 380v-161l1125 1q75 0 75 -70l-1 -100q0 -70 -74 -70h-1100q-276 0 -276 270v500q0 270 276 270h1102q73 0 73 -69l-1 -101q0 -70 -74 -70h-1126v-160h1126q75 0 75 -70v-100q0 -70 -75 -70h-1125zM285 1080l482 340h350l-482 -340h-350z" />
    <glyph glyph-name="Ecircumflex" unicode="&#xca;" horiz-adv-x="1501" 
d="M226 380v-161l1125 1q75 0 75 -70l-1 -100q0 -70 -74 -70h-1100q-276 0 -276 270v500q0 270 276 270h1102q73 0 73 -69l-1 -101q0 -70 -74 -70h-1126v-160h1126q75 0 75 -70v-100q0 -70 -75 -70h-1125zM813 1080l-112 134l-112 -134h-286l202 231q82 109 196 109
t196 -109l202 -231h-286z" />
    <glyph glyph-name="Edieresis" unicode="&#xcb;" horiz-adv-x="1501" 
d="M226 380v-161l1125 1q75 0 75 -70l-1 -100q0 -70 -74 -70h-1100q-276 0 -276 270v500q0 270 276 270h1102q73 0 73 -69l-1 -101q0 -70 -74 -70h-1126v-160h1126q75 0 75 -70v-100q0 -70 -75 -70h-1125zM876 1150v100q0 70 75 70h100q75 0 76 -70v-100q-1 -70 -76 -70
h-101q-74 0 -74 70zM276 1150v100q0 70 75 70h100q75 0 76 -70v-100q-1 -70 -76 -70h-101q-74 0 -74 70z" />
    <glyph glyph-name="Igrave" unicode="&#xcc;" horiz-adv-x="800" 
d="M400 -20h-100q-75 0 -75 70l-1 920h1q0 50 75 50h100q75 0 75 -70v-900q0 -70 -75 -70zM416 1080l-482 340h350l482 -340h-350z" />
    <glyph glyph-name="Iacute" unicode="&#xcd;" horiz-adv-x="800" 
d="M400 -20h-100q-75 0 -75 70l-1 920h1q0 50 75 50h100q75 0 75 -70v-900q0 -70 -75 -70zM-66 1080l482 340h350l-482 -340h-350z" />
    <glyph glyph-name="Icircumflex" unicode="&#xce;" horiz-adv-x="800" 
d="M400 -20h-100q-75 0 -75 70l-1 920h1q0 50 75 50h100q75 0 75 -70v-900q0 -70 -75 -70zM462 1080l-112 134l-112 -134h-286l202 231q82 109 196 109t196 -109l202 -231h-286z" />
    <glyph glyph-name="Idieresis" unicode="&#xcf;" horiz-adv-x="901" 
d="M451 -20h-100q-75 0 -75 70l-1 920h1q0 50 75 50h100q75 0 75 -70v-900q0 -70 -75 -70zM575 1150v100q0 70 75 70h100q75 0 76 -70v-100q-1 -70 -76 -70h-101q-74 0 -74 70zM-25 1150v100q0 70 75 70h100q75 0 76 -70v-100q-1 -70 -76 -70h-101q-74 0 -74 70z" />
    <glyph glyph-name="Eth" unicode="&#xd0;" 
d="M175 720v230q0 70 75 70h900q275 0 275 -270v-500q0 -270 -275 -270h-900q-75 0 -75 70v430h-125q-75 0 -75 70v100q0 70 75 70h125zM426 720h124q75 0 75 -70v-100q0 -70 -75 -70h-124v-260h749v560l-749 1v-61z" />
    <glyph glyph-name="Ntilde" unicode="&#xd1;" horiz-adv-x="1501" 
d="M200 1021q112 0 269 -158l706 -660v748q0 69 75 69h100q76 0 76 -70v-750q-1 -220 -226 -220q-112 0 -269 157l-707 659v-745q0 -71 -74 -71h-101q-74 0 -74 70v750q0 220 225 221zM581 1217l-91 -137h-284l174 232q81 108 195 108q87 0 144 -57l100 -80l91 137h284
l-174 -232q-81 -108 -195 -108q-87 0 -144 57z" />
    <glyph glyph-name="Ograve" unicode="&#xd2;" 
d="M226 781v-561l949 -1l1 561zM1150 1020q275 0 275 -270v-500q0 -270 -275 -270h-900q-275 0 -275 270v500q0 270 276 270h899zM766 1080l-482 340h350l482 -340h-350z" />
    <glyph glyph-name="Oacute" unicode="&#xd3;" 
d="M226 781v-561l949 -1l1 561zM1150 1020q275 0 275 -270v-500q0 -270 -275 -270h-900q-275 0 -275 270v500q0 270 276 270h899zM284 1080l482 340h350l-482 -340h-350z" />
    <glyph glyph-name="Ocircumflex" unicode="&#xd4;" 
d="M226 781v-561l949 -1l1 561zM1150 1020q275 0 275 -270v-500q0 -270 -275 -270h-900q-275 0 -275 270v500q0 270 276 270h899zM812 1080l-112 134l-112 -134h-286l202 231q82 109 196 109t196 -109l202 -231h-286z" />
    <glyph glyph-name="Otilde" unicode="&#xd5;" 
d="M226 781v-561l949 -1l1 561zM1150 1020q275 0 275 -270v-500q0 -270 -275 -270h-900q-275 0 -275 270v500q0 270 276 270h899zM581 1217l-91 -137h-284l174 232q81 108 195 108q87 0 144 -57l100 -80l91 137h284l-174 -232q-81 -108 -195 -108q-87 0 -144 57z" />
    <glyph glyph-name="Odieresis" unicode="&#xd6;" 
d="M226 781v-561l949 -1l1 561zM1150 1020q275 0 275 -270v-500q0 -270 -275 -270h-900q-275 0 -275 270v500q0 270 276 270h899zM875 1150v100q0 70 75 70h100q75 0 76 -70v-100q-1 -70 -76 -70h-101q-74 0 -74 70zM275 1150v100q0 70 75 70h100q75 0 76 -70v-100
q-1 -70 -76 -70h-101q-74 0 -74 70z" />
    <glyph glyph-name="multiply" unicode="&#xd7;" horiz-adv-x="1650" 
d="M769 387l-458 -407h-366l572 520l-572 520h366l458 -407l29 -33l34 34l406 406h364l-520 -520l520 -520h-364l-406 406l-34 34z" />
    <glyph glyph-name="Oslash" unicode="&#xd8;" 
d="M1122 780l-532 -560l585 -1l1 561h-54zM278 220l532 560l-584 1v-561h52zM85 17q-110 47 -110 233v500q0 270 276 270h1099l-35 -37q110 -47 110 -233v-500q0 -270 -275 -270h-1100z" />
    <glyph glyph-name="Ugrave" unicode="&#xd9;" 
d="M766 1080l-482 340h350l482 -340h-350zM1250 1020h100q75 0 75 -70v-900q0 -70 -75 -70h-1100q-275 0 -275 270v700q0 70 75 70h99q76 0 76 -70v-730l949 -1l1 731q0 69 75 70z" />
    <glyph glyph-name="Uacute" unicode="&#xda;" 
d="M284 1080l482 340h350l-482 -340h-350zM1250 1020h100q75 0 75 -70v-900q0 -70 -75 -70h-1100q-275 0 -275 270v700q0 70 75 70h99q76 0 76 -70v-730l949 -1l1 731q0 69 75 70z" />
    <glyph glyph-name="Ucircumflex" unicode="&#xdb;" 
d="M812 1080l-112 134l-112 -134h-286l202 231q82 109 196 109t196 -109l202 -231h-286zM1250 1020h100q75 0 75 -70v-900q0 -70 -75 -70h-1100q-275 0 -275 270v700q0 70 75 70h99q76 0 76 -70v-730l949 -1l1 731q0 69 75 70z" />
    <glyph glyph-name="Udieresis" unicode="&#xdc;" 
d="M875 1150v100q0 70 75 70h100q75 0 76 -70v-100q-1 -70 -76 -70h-101q-74 0 -74 70zM275 1150v100q0 70 75 70h100q75 0 76 -70v-100q-1 -70 -76 -70h-101q-74 0 -74 70zM1250 1020h100q75 0 75 -70v-900q0 -70 -75 -70h-1100q-275 0 -275 270v700q0 70 75 70h99
q76 0 76 -70v-730l949 -1l1 731q0 69 75 70z" />
    <glyph glyph-name="Yacute" unicode="&#xdd;" horiz-adv-x="1600" 
d="M750 532l488 488h314l-677 -677v-293q0 -70 -75 -70h-100q-75 0 -75 70v293l-677 677h314zM334 1080l482 340h350l-482 -340h-350z" />
    <glyph glyph-name="Thorn" unicode="&#xde;" 
d="M226 681l-1 -361h949l1 360zM-25 950q1 70 75 70h101q74 0 74 -70v-30h925q275 0 275 -270v-300q-1 -270 -276 -270h-924v-30q0 -70 -75 -70h-100q-75 0 -75 70v900z" />
    <glyph glyph-name="germandbls" unicode="&#xdf;" 
d="M225 50q0 -70 -75 -70h-100q-75 0 -75 70l1 700q0 270 275 270h899q275 0 275 -270v-50q0 -161 -78 -200q78 -39 78 -200l-1 -50q0 -270 -275 -270h-699q-75 0 -75 70v100q0 70 75 70h724l1 160h-725q-75 0 -75 70v100q0 70 75 70h724l1 160h-949v-100h-1v-630z" />
    <glyph glyph-name="agrave" unicode="&#xe0;" 
d="M100 1020h1050q275 0 275 -271v-699q0 -70 -75 -70h-1100q-275 0 -275 269v102q0 269 274 269h926v160h-1075q-75 0 -75 70v100q0 70 75 70zM225 380v-160h950v160h-950zM766 1080l-482 340h350l482 -340h-350z" />
    <glyph glyph-name="aacute" unicode="&#xe1;" 
d="M100 1020h1050q275 0 275 -271v-699q0 -70 -75 -70h-1100q-275 0 -275 269v102q0 269 274 269h926v160h-1075q-75 0 -75 70v100q0 70 75 70zM225 380v-160h950v160h-950zM284 1080l482 340h350l-482 -340h-350z" />
    <glyph glyph-name="acircumflex" unicode="&#xe2;" 
d="M100 1020h1050q275 0 275 -271v-699q0 -70 -75 -70h-1100q-275 0 -275 269v102q0 269 274 269h926v160h-1075q-75 0 -75 70v100q0 70 75 70zM225 380v-160h950v160h-950zM812 1080l-112 134l-112 -134h-286l202 231q82 109 196 109t196 -109l202 -231h-286z" />
    <glyph glyph-name="atilde" unicode="&#xe3;" 
d="M100 1020h1050q275 0 275 -271v-699q0 -70 -75 -70h-1100q-275 0 -275 269v102q0 269 274 269h926v160h-1075q-75 0 -75 70v100q0 70 75 70zM225 380v-160h950v160h-950zM581 1217l-91 -137h-284l174 232q81 108 195 108q87 0 144 -57l100 -80l91 137h284l-174 -232
q-81 -108 -195 -108q-87 0 -144 57z" />
    <glyph glyph-name="adieresis" unicode="&#xe4;" 
d="M100 1020h1050q275 0 275 -271v-699q0 -70 -75 -70h-1100q-275 0 -275 269v102q0 269 274 269h926v160h-1075q-75 0 -75 70v100q0 70 75 70zM225 380v-160h950v160h-950zM875 1150v100q0 70 75 70h100q75 0 76 -70v-100q-1 -70 -76 -70h-101q-74 0 -74 70zM275 1150v100
q0 70 75 70h100q75 0 76 -70v-100q-1 -70 -76 -70h-101q-74 0 -74 70z" />
    <glyph glyph-name="aring" unicode="&#xe5;" 
d="M100 1020h1050q275 0 275 -271v-699q0 -70 -75 -70h-1100q-275 0 -275 269v102q0 269 274 269h926v160h-1075q-75 0 -75 70v100q0 70 75 70zM225 380v-160h950v160h-950zM700 1080q-74 0 -124.5 50.5t-50.5 119.5t50.5 119.5t124.5 50.5t124.5 -50.5t50.5 -119.5
t-50.5 -119.5t-124.5 -50.5z" />
    <glyph glyph-name="ae" unicode="&#xe6;" horiz-adv-x="2300" 
d="M225 380v-160h749v160h-749zM974 780h-874q-75 0 -75 70v100q0 70 75 70h849q100 0 150 -29q50 29 150 29h700q276 0 276 -270v-300q0 -70 -75 -70h-926v-160h875q76 0 76 -70v-100q0 -70 -76 -70h-1849q-275 0 -275 269v102q0 269 274 269h725v160zM1223 780
q1 -15 1 -31v-129h750v160h-751z" />
    <glyph glyph-name="ccedilla" unicode="&#xe7;" horiz-adv-x="1501" 
d="M1351 220q75 0 75 -70l-1 -100q0 -70 -74 -70h-425v-130q0 -270 -276 -270h-202q-74 0 -74 70v100q3 70 77 70h223v160h-423q-276 0 -276 270v500q0 270 276 270h1102q73 0 73 -69l-1 -101q0 -70 -74 -70h-1126l1 -561z" />
    <glyph glyph-name="egrave" unicode="&#xe8;" 
d="M766 1080l-482 340h350l482 -340h-350zM1299 -20h-1050q-274 0 -274 271v499q0 270 275 270h899q276 0 276 -270v-300q0 -70 -75 -70h-1126v-160h1075q76 0 76 -70v-100q0 -70 -76 -70zM1174 620v160h-950v-160h950z" />
    <glyph glyph-name="eacute" unicode="&#xe9;" 
d="M284 1080l482 340h350l-482 -340h-350zM1299 -20h-1050q-274 0 -274 271v499q0 270 275 270h899q276 0 276 -270v-300q0 -70 -75 -70h-1126v-160h1075q76 0 76 -70v-100q0 -70 -76 -70zM1174 620v160h-950v-160h950z" />
    <glyph glyph-name="ecircumflex" unicode="&#xea;" 
d="M812 1080l-112 134l-112 -134h-286l202 231q82 109 196 109t196 -109l202 -231h-286zM1299 -20h-1050q-274 0 -274 271v499q0 270 275 270h899q276 0 276 -270v-300q0 -70 -75 -70h-1126v-160h1075q76 0 76 -70v-100q0 -70 -76 -70zM1174 620v160h-950v-160h950z" />
    <glyph glyph-name="edieresis" unicode="&#xeb;" 
d="M875 1150v100q0 70 75 70h100q75 0 76 -70v-100q-1 -70 -76 -70h-101q-74 0 -74 70zM275 1150v100q0 70 75 70h100q75 0 76 -70v-100q-1 -70 -76 -70h-101q-74 0 -74 70zM1299 -20h-1050q-274 0 -274 271v499q0 270 275 270h899q276 0 276 -270v-300q0 -70 -75 -70h-1126
v-160h1075q76 0 76 -70v-100q0 -70 -76 -70zM1174 620v160h-950v-160h950z" />
    <glyph glyph-name="igrave" unicode="&#xec;" horiz-adv-x="800" 
d="M400 -20h-100q-75 0 -75 70l-1 920h1q0 50 75 50h100q75 0 75 -70v-900q0 -70 -75 -70zM416 1080l-482 340h350l482 -340h-350z" />
    <glyph glyph-name="iacute" unicode="&#xed;" horiz-adv-x="800" 
d="M400 -20h-100q-75 0 -75 70l-1 920h1q0 50 75 50h100q75 0 75 -70v-900q0 -70 -75 -70zM-66 1080l482 340h350l-482 -340h-350z" />
    <glyph glyph-name="icircumflex" unicode="&#xee;" horiz-adv-x="800" 
d="M400 -20h-100q-75 0 -75 70l-1 920h1q0 50 75 50h100q75 0 75 -70v-900q0 -70 -75 -70zM462 1080l-112 134l-112 -134h-286l202 231q82 109 196 109t196 -109l202 -231h-286z" />
    <glyph glyph-name="idieresis" unicode="&#xef;" horiz-adv-x="901" 
d="M451 -20h-100q-75 0 -75 70l-1 920h1q0 50 75 50h100q75 0 75 -70v-900q0 -70 -75 -70zM575 1150v100q0 70 75 70h100q75 0 76 -70v-100q-1 -70 -76 -70h-101q-74 0 -74 70zM-25 1150v100q0 70 75 70h100q75 0 76 -70v-100q-1 -70 -76 -70h-101q-74 0 -74 70z" />
    <glyph glyph-name="eth" unicode="&#xf0;" 
d="M225 781l1 -560h749v560h-750zM1225 780v-730q0 -70 -74 -70h-900q-276 0 -276 271v500q0 269 276 269h725v160h-826q-75 0 -75 70v100q0 70 75 70h800q275 0 275 -270v-130h125q75 0 75 -70v-100q0 -70 -75 -70h-125z" />
    <glyph glyph-name="ntilde" unicode="&#xf1;" 
d="M150 -20h-100q-75 0 -75 70v900q0 70 75 70h1100q275 0 275 -270v-700q0 -70 -75 -70h-99q-76 0 -76 70v730l-949 1l-1 -731q0 -69 -75 -70zM581 1217l-91 -137h-284l174 232q81 108 195 108q87 0 144 -57l100 -80l91 137h284l-174 -232q-81 -108 -195 -108
q-87 0 -144 57z" />
    <glyph glyph-name="ograve" unicode="&#xf2;" 
d="M226 781v-561l949 -1l1 561zM1150 1020q275 0 275 -270v-500q0 -270 -275 -270h-900q-275 0 -275 270v500q0 270 276 270h899zM766 1080l-482 340h350l482 -340h-350z" />
    <glyph glyph-name="oacute" unicode="&#xf3;" 
d="M226 781v-561l949 -1l1 561zM1150 1020q275 0 275 -270v-500q0 -270 -275 -270h-900q-275 0 -275 270v500q0 270 276 270h899zM284 1080l482 340h350l-482 -340h-350z" />
    <glyph glyph-name="ocircumflex" unicode="&#xf4;" 
d="M226 781v-561l949 -1l1 561zM1150 1020q275 0 275 -270v-500q0 -270 -275 -270h-900q-275 0 -275 270v500q0 270 276 270h899zM812 1080l-112 134l-112 -134h-286l202 231q82 109 196 109t196 -109l202 -231h-286z" />
    <glyph glyph-name="otilde" unicode="&#xf5;" 
d="M226 781v-561l949 -1l1 561zM1150 1020q275 0 275 -270v-500q0 -270 -275 -270h-900q-275 0 -275 270v500q0 270 276 270h899zM581 1217l-91 -137h-284l174 232q81 108 195 108q87 0 144 -57l100 -80l91 137h284l-174 -232q-81 -108 -195 -108q-87 0 -144 57z" />
    <glyph glyph-name="odieresis" unicode="&#xf6;" 
d="M226 781v-561l949 -1l1 561zM1150 1020q275 0 275 -270v-500q0 -270 -275 -270h-900q-275 0 -275 270v500q0 270 276 270h899zM875 1150v100q0 70 75 70h100q75 0 76 -70v-100q-1 -70 -76 -70h-101q-74 0 -74 70zM275 1150v100q0 70 75 70h100q75 0 76 -70v-100
q-1 -70 -76 -70h-101q-74 0 -74 70z" />
    <glyph glyph-name="divide" unicode="&#xf7;" horiz-adv-x="1300" 
d="M50 380q-75 0 -75 70v100q0 70 75 70h1100q75 0 75 -70v-100q0 -70 -75 -70h-1100zM475 150v100q0 70 75 70h100q75 0 76 -70v-100q-1 -70 -76 -70h-101q-74 0 -74 70zM475 750v100q0 70 75 70h100q75 0 76 -70v-100q-1 -70 -76 -70h-101q-74 0 -74 70z" />
    <glyph glyph-name="oslash" unicode="&#xf8;" 
d="M1122 780l-532 -560l585 -1l1 561h-54zM278 220l532 560l-584 1v-561h52zM85 17q-110 47 -110 233v500q0 270 276 270h1099l-35 -37q110 -47 110 -233v-500q0 -270 -275 -270h-1100z" />
    <glyph glyph-name="ugrave" unicode="&#xf9;" 
d="M1250 1020h100q75 0 75 -70v-700q0 -270 -275 -270h-900q-275 0 -275 270v700q0 70 75 70h99q76 0 76 -70v-730l949 -1l1 731q0 69 75 70zM766 1080l-482 340h350l482 -340h-350z" />
    <glyph glyph-name="uacute" unicode="&#xfa;" 
d="M1250 1020h100q75 0 75 -70v-700q0 -270 -275 -270h-900q-275 0 -275 270v700q0 70 75 70h99q76 0 76 -70v-730l949 -1l1 731q0 69 75 70zM284 1080l482 340h350l-482 -340h-350z" />
    <glyph glyph-name="ucircumflex" unicode="&#xfb;" 
d="M1250 1020h100q75 0 75 -70v-700q0 -270 -275 -270h-900q-275 0 -275 270v700q0 70 75 70h99q76 0 76 -70v-730l949 -1l1 731q0 69 75 70zM812 1080l-112 134l-112 -134h-286l202 231q82 109 196 109t196 -109l202 -231h-286z" />
    <glyph glyph-name="udieresis" unicode="&#xfc;" 
d="M1250 1020h100q75 0 75 -70v-700q0 -270 -275 -270h-900q-275 0 -275 270v700q0 70 75 70h99q76 0 76 -70v-730l949 -1l1 731q0 69 75 70zM875 1150v100q0 70 75 70h100q75 0 76 -70v-100q-1 -70 -76 -70h-101q-74 0 -74 70zM275 1150v100q0 70 75 70h100q75 0 76 -70
v-100q-1 -70 -76 -70h-101q-74 0 -74 70z" />
    <glyph glyph-name="yacute" unicode="&#xfd;" 
d="M1175 950q0 70 75 70h101q74 0 74 -70v-1100q0 -270 -275 -270h-1000q-75 0 -75 70v100q0 70 75 70h1026v160h-925q-276 0 -276 269v701q0 70 75 70h100q75 0 76 -70l-1 -731h950v731zM284 1080l482 340h350l-482 -340h-350z" />
    <glyph glyph-name="thorn" unicode="&#xfe;" horiz-adv-x="1501" 
d="M1177 220l-1 560h-951l1 -560h951zM225 1020h926q275 0 275 -271v-500q-1 -269 -275 -269h-925v-331q0 -69 -77 -69h-100q-66 0 -74 68v1702q0 70 75 70h100q75 0 75 -70v-330z" />
    <glyph glyph-name="ydieresis" unicode="&#xff;" 
d="M1175 950q0 70 75 70h101q74 0 74 -70v-1100q0 -270 -275 -270h-1000q-75 0 -75 70v100q0 70 75 70h1026v160h-925q-276 0 -276 269v701q0 70 75 70h100q75 0 76 -70l-1 -731h950v731zM875 1150v100q0 70 75 70h100q75 0 76 -70v-100q-1 -70 -76 -70h-101q-74 0 -74 70z
M275 1150v100q0 70 75 70h100q75 0 76 -70v-100q-1 -70 -76 -70h-101q-74 0 -74 70z" />
    <glyph glyph-name="circumflex" unicode="&#x2c6;" horiz-adv-x="800" 
d="M462 1080l-112 134l-112 -134h-286l202 231q82 109 196 109t196 -109l202 -231h-286z" />
    <glyph glyph-name="tilde" unicode="&#x2dc;" horiz-adv-x="1000" 
d="M331 1217l-91 -137h-284l174 232q81 108 195 108q87 0 144 -57l100 -80l91 137h284l-174 -232q-81 -108 -195 -108q-87 0 -144 57z" />
    <glyph glyph-name="endash" unicode="&#x2013;" horiz-adv-x="1400" 
d="M50 380q-75 0 -75 70v100q0 70 75 70h1200q75 0 75 -70v-100q0 -70 -75 -70h-1200z" />
    <glyph glyph-name="emdash" unicode="&#x2014;" 
d="M50 380q-75 0 -75 70v100q0 70 75 70h1300q75 0 75 -70v-100q0 -70 -75 -70h-1300z" />
    <glyph glyph-name="quoteleft" unicode="&#x2018;" horiz-adv-x="350" 
d="M275 850q0 -70 -50 -70v-180q0 -70 -75 -70h-100q-75 0 -75 70v150q0 270 300 270v-170z" />
    <glyph glyph-name="quoteright" unicode="&#x2019;" horiz-adv-x="350" 
d="M-25 700q1 70 50 70v180q0 70 75 70h100q75 0 75 -70v-150q0 -270 -300 -270v170z" />
    <glyph glyph-name="quotesinglbase" unicode="&#x201a;" horiz-adv-x="350" 
d="M-25 -100q1 70 50 70v180q0 70 75 70h100q75 0 75 -70v-150q0 -270 -300 -270v170z" />
    <glyph glyph-name="quotedblleft" unicode="&#x201c;" horiz-adv-x="650" 
d="M575 850q0 -70 -50 -70v-180q0 -70 -75 -70h-100q-75 0 -75 70v150q0 270 300 270v-170zM275 850q0 -70 -50 -70v-180q0 -70 -75 -70h-100q-75 0 -75 70v150q0 270 300 270v-170z" />
    <glyph glyph-name="quotedblright" unicode="&#x201d;" horiz-adv-x="650" 
d="M-25 700q1 70 50 70v180q0 70 75 70h100q75 0 75 -70v-150q0 -270 -300 -270v170zM275 700q1 70 50 70v180q0 70 75 70h100q75 0 75 -70v-150q0 -270 -300 -270v170z" />
    <glyph glyph-name="quotedblbase" unicode="&#x201e;" horiz-adv-x="650" 
d="M-25 -100q1 70 50 70v180q0 70 75 70h100q75 0 75 -70v-150q0 -270 -300 -270v170zM275 -100q1 70 50 70v180q0 70 75 70h100q75 0 75 -70v-150q0 -270 -300 -270v170z" />
    <glyph glyph-name="dagger" unicode="&#x2020;" horiz-adv-x="1250" 
d="M981 451q153 157 153 379q0 224 -160 383q-133 135 -314 156q219 -422 321 -918zM519 1369q-178 -21 -311 -156q-160 -159 -160 -383q0 -204 130 -355q124 464 341 894zM900 382q-110 164 -205 164q-9 0 -18 -1q-13 0 -25 -2q-114 -20 -295 -207q106 -51 233 -51
q175 0 310 97zM987 419q29 -143 47 -291q-63 137 -118 229q-143 -101 -328 -101q-138 0 -253 56q-115 -123 -257 -312q35 222 91 438q-155 164 -155 392q0 237 168 405q150 149 354 166q25 50 52 98q28 -48 55 -98q201 -17 351 -166q168 -168 168 -405q0 -238 -168 -406
q-3 -2 -7 -5zM1003 223q-96 638 -415 1244q-350 -702 -478 -1389q319 432 527 481q23 5 44 5q180 0 322 -341zM747 893l-95 -63l32 -160l-96 95l-96 -95l32 160l-95 63l127 32l32 446l32 -446z" />
    <glyph glyph-name="daggerdbl" unicode="&#x2021;" 
d="M464 994l14 36q-140 -30 -254 -99q-197 -121 -197 -292q0 -170 197 -291l32 -18q3 15 7 30q-7 4 -12 8q-187 112 -187 270t187 270q96 58 213 86zM1069 294q-8 12 -15 24q-155 -62 -352 -62q-150 0 -274 35q-9 -11 -21 -24q133 -40 293 -40q207 0 369 67zM1126 283
q12 -77 22 -155q-32 74 -63 135q-169 -72 -383 -72q-175 0 -319 47q-89 -101 -192 -238q24 151 58 297q-22 12 -43 26q-206 130 -206 315t206 317q127 79 287 110q92 222 209 434q119 -208 210 -434q160 -31 286 -110q205 -132 205 -317t-205 -315q-35 -23 -72 -40z
M1120 317q30 13 57 31q198 121 198 291q0 171 -198 292q-112 68 -251 98q7 -17 13 -35q117 -28 214 -86q186 -112 186 -270t-186 -270q-19 -12 -38 -22q2 -14 5 -29zM1116 223q-96 638 -414 1244q-350 -702 -479 -1389q319 433 527 481q23 5 45 5q180 0 321 -341zM861 893
l-96 -63l33 -160l-96 95l-96 -95l32 160l-96 63l128 32l32 447l31 -447z" />
    <glyph glyph-name="bullet" unicode="&#x2022;" horiz-adv-x="1600" 
d="M0 200v1100q0 200 200 200h1100q200 0 200 -200v-1100q0 -200 -200 -200h-1100q-200 0 -200 200zM1475 201v1099q0 175 -175 175h-1100q-174 0 -175 -175v-1100q1 -175 175 -175h1101q174 0 174 176z" />
    <glyph glyph-name="ellipsis" unicode="&#x2026;" horiz-adv-x="901" 
d="M575 50v100q0 70 75 70h100q75 0 76 -70v-100q-1 -70 -76 -70h-101q-74 0 -74 70zM-25 50v100q0 70 75 70h100q75 0 76 -70v-100q-1 -70 -76 -70h-101q-74 0 -74 70zM275 50v100q0 70 75 70h100q75 0 76 -70v-100q-1 -70 -76 -70h-101q-74 0 -74 70z" />
    <glyph glyph-name="guilsinglleft" unicode="&#x2039;" horiz-adv-x="900" 
d="M234 500l624 -520h-369l-458 407q-56 56 -56 113t56 113l458 407h369z" />
    <glyph glyph-name="guilsinglright" unicode="&#x203a;" horiz-adv-x="900" 
d="M-58 1020h369l458 -407q56 -56 56 -113t-56 -113l-458 -407h-369l624 520z" />
    <glyph glyph-name="Euro" unicode="&#x20ac;" 
d="M175 745v5q0 270 276 270h901q73 0 73 -69l-1 -101q0 -70 -74 -70h-925v-35h525q75 0 75 -70v-100q0 -70 -75 -70h-525v-10h525q75 0 75 -70v-100q0 -70 -75 -70h-525v-35h925q75 0 75 -70l-1 -100q0 -70 -74 -70h-899q-276 0 -276 270v5h-125q-75 0 -75 70v100
q0 70 75 70h125v10h-125q-75 0 -75 70v100q0 70 75 70h125z" />
    <glyph glyph-name="trademark" unicode="&#x2122;" horiz-adv-x="1650" 
d="M700 975v-50q0 -25 -25 -25h-275v-375q0 -25 -25 -25h-50q-25 0 -25 25v375h-275q-25 0 -25 25v50q0 25 25 25h650q25 0 25 -25zM850 1001q50 0 100 -76l200 -325l200 326q50 74 100 74q100 0 100 -100v-375q0 -24 -25 -24h-51q-24 0 -24 24v376l-225 -351
q-25 -50 -75 -50t-75 50l-225 350v-375q0 -24 -25 -24h-50q-25 0 -25 24v375q0 100 100 101z" />
    <glyph glyph-name="OE" unicode="&#x152;" horiz-adv-x="2301" 
d="M226 781v-561l749 -1l1 561zM1099 21q-46 -41 -149 -41h-700q-275 0 -275 270v500q0 270 276 270h699q103 0 150 -41q48 41 151 41h902q73 0 73 -69l-1 -101q0 -70 -74 -70h-926v-160h926q75 0 75 -70v-100q0 -70 -75 -70h-925v-161l925 1q75 0 75 -70l-1 -100
q0 -70 -74 -70h-900q-102 0 -152 41z" />
    <glyph glyph-name="oe" unicode="&#x153;" horiz-adv-x="2301" 
d="M226 781v-561h750v560zM1975 620v160h-751v-160h751zM1101 21q-48 -41 -151 -41h-700q-275 0 -275 270v500q0 270 276 270h699q103 0 150 -41q47 41 150 41h700q276 0 276 -270v-300q0 -70 -75 -70h-926l-1 -160h876q76 0 76 -70v-100q0 -70 -76 -70h-851q-102 0 -148 41
z" />
    <glyph glyph-name="perthousand" unicode="&#x2030;" horiz-adv-x="1800" 
d="M225 780l1 -160h249l1 160h-251zM725 380l1 -160h249l1 160h-251zM1225 380l1 -160h249l1 160h-251zM475 204l-213 -224h-312l380 400h-80q-275 0 -275 270v100q0 270 276 270h199q275 0 275 -270v46l213 224h312l-380 -400h80q103 0 149 -41q50 41 152 41h199
q275 0 275 -270v-100q0 -270 -275 -270h-200q-103 0 -150 41q-47 -41 -150 -41h-200q-275 0 -275 270v-46z" />
  </font>
</defs>
</svg>
